<?xml version="1.0" standalone="no"?>
<!DOCTYPE svg PUBLIC "-//W3C//DTD SVG 20010904//EN"
 "http://www.w3.org/TR/2001/REC-SVG-20010904/DTD/svg10.dtd">
<svg version="1.0" xmlns="http://www.w3.org/2000/svg"
 width="150.000000pt" height="150.000000pt" viewBox="0 0 150.000000 150.000000"
 preserveAspectRatio="xMidYMid meet">
<metadata>
Created by potrace 1.11, written by Peter Selinger 2001-2013
</metadata>
<g transform="translate(0.000000,150.000000) scale(0.100000,-0.100000)"
fill="#000000" stroke="none">
<path d="M624 1085 c-95 -28 -172 -85 -225 -168 -21 -32 -40 -71 -44 -86 -5
-25 -12 -29 -50 -34 -152 -21 -275 -164 -275 -319 0 -75 -7 -70 85 -70 111 0
115 1 115 22 0 22 0 22 -85 22 -33 1 -63 6 -67 12 -11 17 1 77 28 133 41 86
129 147 225 157 24 2 47 5 50 5 4 1 10 17 13 36 14 72 86 166 161 210 89 52
201 61 301 24 44 -16 74 -38 120 -84 l60 -61 69 33 c93 44 158 45 241 3 43
-21 62 -26 71 -18 20 16 17 22 -39 55 -70 42 -145 51 -224 28 -33 -9 -69 -23
-82 -31 -21 -14 -24 -13 -47 15 -88 104 -267 156 -401 116z"/>
<path d="M1455 879 c-10 -15 3 -25 16 -12 7 7 7 13 1 17 -6 3 -14 1 -17 -5z"/>
<path d="M1428 808 c-8 -21 2 -38 21 -38 24 0 30 8 24 31 -6 21 -38 26 -45 7z"/>
<path d="M1394 732 c-35 -24 -13 -76 30 -70 28 4 35 47 10 65 -20 15 -25 16
-40 5z"/>
<path d="M972 649 c-34 -16 -65 -36 -68 -44 -7 -16 42 -129 63 -146 11 -10 18
-9 30 4 14 13 14 21 5 42 -13 29 -12 29 48 11 94 -28 233 -3 305 57 39 32 44
53 16 62 -13 4 -34 -4 -61 -24 -71 -51 -194 -63 -280 -27 l-32 13 31 13 c43
17 57 36 41 55 -16 20 -24 19 -98 -16z"/>
</g>
</svg>
